<?xml version="1.0" standalone="no"?>
<!DOCTYPE svg PUBLIC "-//W3C//DTD SVG 20010904//EN"
 "http://www.w3.org/TR/2001/REC-SVG-20010904/DTD/svg10.dtd">
<svg version="1.0" xmlns="http://www.w3.org/2000/svg"
 width="1002.000000pt" height="251.000000pt" viewBox="0 0 1002.000000 251.000000"
 preserveAspectRatio="xMidYMid meet">
<metadata>
Created by potrace 1.15, written by Peter Selinger 2001-2017
</metadata>
<g transform="translate(0.000000,251.000000) scale(0.100000,-0.100000)"
fill="#000000" stroke="none">
<path d="M8090 2387 l-23 -43 -86 35 c-85 35 -88 36 -226 36 -126 -1 -147 -3
-207 -27 -72 -27 -178 -87 -178 -100 0 -4 191 -8 425 -8 l425 0 0 75 0 75 -54
0 c-53 0 -53 -1 -76 -43z"/>
<path d="M501 2404 c-68 -18 -141 -58 -177 -95 l-28 -29 402 0 402 0 0 50 0
50 -55 0 c-46 0 -57 -4 -70 -23 l-15 -23 -58 27 c-32 16 -85 35 -117 44 -73
19 -212 18 -284 -1z"/>
<path d="M1656 2353 c-27 -78 -38 -73 174 -73 105 0 190 3 190 7 0 3 -8 30
-17 60 l-17 53 -157 0 -157 0 -16 -47z"/>
<path d="M2510 2330 l0 -50 260 0 c143 0 260 3 260 7 0 3 -11 26 -25 50 l-26
43 -234 0 -235 0 0 -50z"/>
<path d="M3350 2330 l0 -50 245 0 245 0 0 50 0 50 -245 0 -245 0 0 -50z"/>
<path d="M3910 2330 l0 -50 320 0 320 0 0 50 0 50 -320 0 -320 0 0 -50z"/>
<path d="M4620 2330 l0 -50 590 0 590 0 0 50 0 50 -590 0 -590 0 0 -50z"/>
<path d="M5830 2330 l0 -50 555 0 555 0 0 50 0 50 -555 0 -555 0 0 -50z"/>
<path d="M8370 2330 l0 -50 325 0 325 0 0 50 0 50 -325 0 -325 0 0 -50z"/>
<path d="M9120 2330 l0 -50 335 0 335 0 0 50 0 50 -335 0 -335 0 0 -50z"/>
<path d="M246 2217 c-15 -23 -46 -102 -46 -118 0 -5 62 -9 139 -9 l139 0 6 45
c4 26 18 58 32 75 l26 30 -141 0 c-135 0 -141 -1 -155 -23z"/>
<path d="M814 2200 c20 -23 44 -56 53 -75 l17 -35 108 0 108 0 0 75 0 75 -161
0 -161 0 36 -40z"/>
<path d="M1600 2174 c-11 -36 -20 -70 -20 -75 0 -5 110 -9 251 -9 234 0 250 1
245 18 -3 9 -12 43 -21 75 l-16 57 -209 0 -209 0 -21 -66z"/>
<path d="M2612 2213 c29 -32 58 -85 58 -108 0 -13 30 -15 236 -15 l236 0 -40
73 -40 72 -238 3 -238 2 26 -27z"/>
<path d="M3410 2235 c0 -3 9 -18 21 -34 11 -15 23 -47 26 -69 l6 -42 132 0
132 0 6 46 c2 25 14 59 26 75 l22 29 -186 0 c-102 0 -185 -2 -185 -5z"/>
<path d="M4035 2223 c4 -10 10 -44 13 -75 l4 -58 179 0 179 0 0 49 c0 27 4 61
10 75 l10 26 -201 0 c-188 0 -201 -1 -194 -17z"/>
<path d="M4620 2165 l0 -75 85 0 c54 0 85 4 85 11 0 27 65 102 104 120 l41 19
-157 0 -158 0 0 -75z"/>
<path d="M5040 2165 l0 -75 170 0 170 0 0 75 0 75 -170 0 -170 0 0 -75z"/>
<path d="M5522 2227 c38 -17 66 -46 95 -94 l25 -43 79 0 79 0 0 75 0 75 -152
-1 c-127 0 -148 -3 -126 -12z"/>
<path d="M5989 2226 c6 -7 14 -41 17 -75 l7 -61 158 0 159 0 0 75 0 75 -176 0
c-147 0 -175 -2 -165 -14z"/>
<path d="M6648 2221 c55 -19 102 -56 130 -103 15 -26 20 -28 89 -28 l73 0 0
75 0 75 -172 0 -173 -1 53 -18z"/>
<path d="M7293 2218 c-30 -33 -83 -110 -83 -120 0 -4 89 -8 198 -8 l198 0 39
41 c50 52 90 69 159 69 45 0 62 -6 107 -36 29 -19 59 -44 67 -55 12 -17 26
-19 128 -19 l114 0 0 75 0 75 -453 0 -454 0 -20 -22z"/>
<path d="M8449 2221 c55 -22 81 -53 81 -97 l0 -34 159 0 158 0 6 46 c6 53 23
74 75 90 30 10 -15 12 -243 12 -279 1 -280 1 -236 -17z"/>
<path d="M9200 2223 c57 -24 80 -51 80 -95 l0 -38 185 0 185 0 0 43 c0 53 14
73 65 91 37 13 14 15 -255 14 -272 0 -292 -1 -260 -15z"/>
<path d="M190 1975 l0 -75 233 0 232 0 -45 26 c-55 31 -88 61 -106 97 l-15 27
-149 0 -150 0 0 -75z"/>
<path d="M910 2043 c0 -4 12 -38 27 -75 l26 -68 69 0 68 0 0 75 0 75 -95 0
c-52 0 -95 -3 -95 -7z"/>
<path d="M1541 1981 c-12 -38 -21 -72 -21 -75 0 -3 42 -6 94 -6 l93 0 14 48
13 47 14 -47 13 -48 185 0 184 0 -7 28 c-3 15 -12 47 -18 72 l-11 45 -266 3
-266 2 -21 -69z"/>
<path d="M2680 1975 l0 -75 284 0 285 0 -42 75 -42 75 -242 0 -243 0 0 -75z"/>
<path d="M3470 1975 l0 -75 125 0 125 0 0 75 0 75 -125 0 -125 0 0 -75z"/>
<path d="M4050 1975 l0 -75 180 0 180 0 0 75 0 75 -180 0 -180 0 0 -75z"/>
<path d="M4620 1975 l0 -75 58 0 58 0 12 60 c7 34 15 67 19 75 4 12 -8 15 -71
15 l-76 0 0 -75z"/>
<path d="M5040 1975 l0 -75 170 0 170 0 0 75 0 75 -170 0 -170 0 0 -75z"/>
<path d="M5660 2033 c1 -10 7 -43 14 -73 l12 -55 57 -3 57 -3 0 76 0 75 -70 0
c-60 0 -70 -2 -70 -17z"/>
<path d="M6010 1975 l0 -75 160 0 160 0 0 75 0 75 -160 0 -160 0 0 -75z"/>
<path d="M6814 2033 c3 -10 12 -44 21 -75 l16 -58 45 0 44 0 0 75 0 75 -66 0
c-57 0 -65 -2 -60 -17z"/>
<path d="M7167 2013 c-8 -21 -19 -55 -25 -75 l-10 -38 194 0 c176 0 195 2 201
18 3 9 16 43 28 75 l23 57 -198 0 -198 0 -15 -37z"/>
<path d="M8048 1975 l25 -75 74 0 73 0 0 75 0 75 -98 0 -98 0 24 -75z"/>
<path d="M8530 1975 l0 -75 160 0 160 0 0 75 0 75 -160 0 -160 0 0 -75z"/>
<path d="M9280 1975 l0 -75 185 0 185 0 0 75 0 75 -185 0 -185 0 0 -75z"/>
<path d="M6502 1965 c-7 -25 -12 -50 -12 -55 0 -6 32 -10 75 -10 l75 0 0 55 0
55 -63 0 -63 0 -12 -45z"/>
<path d="M210 1848 c0 -7 11 -35 25 -63 45 -93 3 -85 434 -85 212 0 381 4 381
9 0 17 -107 81 -192 116 l-88 35 -280 0 c-217 0 -280 -3 -280 -12z"/>
<path d="M1481 1788 c-11 -40 -21 -76 -21 -80 0 -5 42 -8 93 -8 l94 0 18 63
c9 34 20 70 22 80 5 15 -4 17 -89 17 l-95 0 -22 -72z"/>
<path d="M1777 1828 c3 -18 12 -53 18 -78 l11 -45 187 -3 c146 -2 187 0 187
10 -1 7 -9 42 -19 78 l-18 65 -186 3 -187 2 7 -32z"/>
<path d="M2680 1780 l0 -80 100 0 100 0 0 80 0 80 -100 0 -100 0 0 -80z"/>
<path d="M2930 1780 l40 -80 190 0 c146 0 190 3 189 13 0 6 -17 41 -38 77
l-37 65 -192 3 -192 2 40 -80z"/>
<path d="M3470 1780 l0 -80 125 0 125 0 0 80 0 80 -125 0 -125 0 0 -80z"/>
<path d="M4050 1780 l0 -80 180 0 180 0 0 80 0 80 -180 0 -180 0 0 -80z"/>
<path d="M5040 1780 l0 -80 170 0 170 0 0 80 0 80 -170 0 -170 0 0 -80z"/>
<path d="M6010 1780 l0 -80 315 0 315 0 0 80 0 80 -89 0 c-77 0 -90 -2 -95
-18 -7 -21 -83 -72 -108 -72 -15 0 -18 8 -18 45 l0 45 -160 0 -160 0 0 -80z"/>
<path d="M7116 1823 c-3 -21 -6 -57 -6 -80 l0 -43 200 0 200 0 0 80 0 80 -194
0 -193 0 -7 -37z"/>
<path d="M8530 1780 l0 -80 560 0 560 0 0 80 0 80 -185 0 c-178 0 -185 -1
-185 -20 0 -19 -7 -20 -215 -20 -208 0 -215 1 -215 20 0 19 -7 20 -160 20
l-160 0 0 -80z"/>
<path d="M330 1662 c0 -15 104 -70 210 -111 l105 -41 257 2 257 3 -18 51 c-9
28 -25 63 -34 78 l-17 26 -380 0 c-209 0 -380 -4 -380 -8z"/>
<path d="M1422 1596 c-12 -41 -22 -77 -22 -80 0 -3 42 -6 94 -6 l93 0 22 73
c11 39 21 75 21 80 0 4 -42 7 -93 7 l-94 0 -21 -74z"/>
<path d="M1820 1659 c0 -5 7 -41 16 -80 l16 -69 200 0 c156 0 199 3 196 13 -3
6 -15 42 -27 80 l-23 67 -189 0 c-126 0 -189 -4 -189 -11z"/>
<path d="M2680 1590 l0 -80 100 0 100 0 0 80 0 80 -100 0 -100 0 0 -80z"/>
<path d="M2990 1664 c0 -4 18 -40 41 -80 l40 -74 195 0 c107 0 194 2 194 5 0
3 -18 39 -41 80 l-41 75 -194 0 c-107 0 -194 -3 -194 -6z"/>
<path d="M3470 1590 l0 -80 125 0 125 0 0 80 0 80 -125 0 -125 0 0 -80z"/>
<path d="M4050 1590 l0 -80 180 0 180 0 0 80 0 80 -180 0 -180 0 0 -80z"/>
<path d="M5040 1590 l0 -80 170 0 170 0 0 80 0 80 -170 0 -170 0 0 -80z"/>
<path d="M6010 1590 l0 -80 160 0 160 0 0 50 c0 48 1 50 27 50 19 0 40 -14 74
-50 l47 -50 81 0 81 0 0 80 0 80 -315 0 -315 0 0 -80z"/>
<path d="M7110 1613 c0 -111 -17 -103 212 -103 l201 0 -7 31 c-3 17 -6 53 -6
80 l0 49 -200 0 -200 0 0 -57z"/>
<path d="M8530 1590 l0 -80 160 0 160 0 0 30 0 30 215 0 215 0 0 -30 0 -30
185 0 185 0 0 80 0 80 -560 0 -560 0 0 -80z"/>
<path d="M160 1400 l0 -80 106 0 c58 0 104 3 102 8 -1 4 -16 40 -32 80 l-29
72 -74 0 -73 0 0 -80z"/>
<path d="M750 1474 c0 -4 20 -24 45 -46 24 -21 50 -54 57 -73 l12 -35 147 0
c166 0 159 -4 159 87 0 77 12 73 -216 73 -112 0 -204 -3 -204 -6z"/>
<path d="M1361 1413 c-13 -38 -26 -74 -29 -80 -3 -10 22 -13 106 -13 102 0
111 2 117 20 6 19 15 20 170 20 155 0 164 -1 170 -20 6 -19 15 -20 211 -20
157 0 204 3 204 13 0 6 -11 41 -24 77 l-24 65 -438 3 -439 2 -24 -67z"/>
<path d="M2680 1423 c0 -32 -3 -68 -6 -80 -6 -23 -6 -23 106 -23 l113 0 -7 31
c-3 17 -6 53 -6 80 l0 49 -100 0 -100 0 0 -57z"/>
<path d="M3090 1475 c0 -2 17 -38 37 -80 l37 -75 278 0 278 0 0 80 0 80 -315
0 c-173 0 -315 -2 -315 -5z"/>
<path d="M4050 1400 l0 -80 180 0 180 0 0 80 0 80 -180 0 -180 0 0 -80z"/>
<path d="M5040 1400 l0 -80 170 0 170 0 0 80 0 80 -170 0 -170 0 0 -80z"/>
<path d="M6010 1400 l0 -80 160 0 160 0 0 80 0 80 -160 0 -160 0 0 -80z"/>
<path d="M6836 1417 c-10 -34 -21 -70 -23 -79 -5 -16 3 -18 71 -18 l76 0 0 80
0 80 -52 0 -53 0 -19 -63z"/>
<path d="M7130 1466 c0 -8 9 -44 20 -80 l21 -66 204 0 c113 0 205 2 205 4 0 2
-11 29 -25 60 -14 31 -25 65 -25 76 0 19 -8 20 -200 20 -164 0 -200 -2 -200
-14z"/>
<path d="M8123 1400 l-43 -80 79 0 79 0 16 47 c22 64 21 68 -18 92 -56 35 -67
29 -113 -59z"/>
<path d="M8530 1400 l0 -80 160 0 160 0 0 80 0 80 -160 0 -160 0 0 -80z"/>
<path d="M9280 1400 l0 -80 185 0 185 0 0 80 0 80 -185 0 -185 0 0 -80z"/>
<path d="M160 1205 l0 -75 188 0 187 0 -32 25 c-17 14 -48 48 -68 75 l-37 50
-119 0 -119 0 0 -75z"/>
<path d="M857 1238 c-3 -22 -15 -54 -26 -69 -12 -16 -21 -31 -21 -34 0 -3 62
-4 138 -3 l137 3 26 50 c15 28 30 60 34 73 l6 22 -144 0 -144 0 -6 -42z"/>
<path d="M1296 1234 c-10 -25 -30 -59 -43 -75 l-25 -29 144 0 144 0 0 38 c0
20 3 54 8 75 l8 37 -108 0 -109 0 -19 -46z"/>
<path d="M1920 1273 c0 -5 8 -38 17 -75 l17 -68 223 0 c123 0 223 3 223 6 0 3
-8 18 -18 32 -10 15 -26 45 -34 67 l-16 40 -206 3 c-113 1 -206 -1 -206 -5z"/>
<path d="M2670 1252 c0 -16 -11 -50 -24 -75 l-23 -47 164 0 164 0 -20 28 c-11
16 -25 49 -32 75 l-11 47 -109 0 -109 0 0 -28z"/>
<path d="M3227 1205 l37 -75 228 0 228 0 0 75 0 75 -265 0 -265 0 37 -75z"/>
<path d="M4050 1228 c0 -29 -3 -63 -6 -75 l-6 -23 197 0 c184 0 197 1 190 18
-4 9 -10 43 -13 75 l-4 57 -179 0 -179 0 0 -52z"/>
<path d="M5040 1221 c0 -33 -3 -66 -6 -75 -5 -14 14 -16 181 -16 175 0 187 1
179 18 -4 9 -10 43 -12 75 l-4 57 -169 0 -169 0 0 -59z"/>
<path d="M6007 1223 c-3 -32 -8 -66 -12 -75 -7 -17 9 -18 239 -18 135 0 246 2
246 4 0 3 -24 10 -54 16 -64 13 -86 34 -93 89 l-6 41 -157 0 -157 0 -6 -57z"/>
<path d="M6766 1235 c-19 -47 -55 -75 -96 -75 -11 0 -20 -7 -20 -15 0 -13 24
-15 155 -15 l155 0 0 75 0 75 -87 0 -88 0 -19 -45z"/>
<path d="M7200 1274 c0 -11 24 -50 58 -96 l36 -48 421 0 420 0 26 43 c15 23
34 57 43 75 l17 32 -82 0 -81 0 -49 -44 c-27 -24 -70 -51 -95 -60 -92 -31
-235 10 -281 81 -15 23 -18 23 -224 23 -115 0 -209 -3 -209 -6z"/>
<path d="M8530 1244 c0 -46 -14 -71 -53 -94 l-32 -20 260 0 260 1 -45 22 c-48
23 -70 55 -70 100 l0 27 -160 0 -160 0 0 -36z"/>
<path d="M9280 1237 c0 -46 -10 -64 -50 -91 -23 -15 -8 -16 255 -15 l280 0
-51 23 c-55 25 -64 39 -64 92 l0 34 -185 0 -185 0 0 -43z"/>
<path d="M170 1040 l0 -50 43 0 c35 0 49 6 71 29 l28 29 71 -33 c177 -82 380
-85 532 -10 39 19 84 46 100 60 l30 25 -437 0 -438 0 0 -50z"/>
<path d="M1160 1040 l0 -50 240 0 240 0 0 50 0 50 -240 0 -240 0 0 -50z"/>
<path d="M1830 1040 l0 -50 315 0 315 0 0 50 0 50 -315 0 -315 0 0 -50z"/>
<path d="M2560 1040 l0 -50 225 0 225 0 0 50 0 50 -225 0 -225 0 0 -50z"/>
<path d="M3290 1085 c0 -3 11 -28 25 -55 l25 -50 190 0 190 0 0 55 0 55 -215
0 c-118 0 -215 -2 -215 -5z"/>
<path d="M3910 1040 l0 -50 320 0 320 0 0 50 0 50 -320 0 -320 0 0 -50z"/>
<path d="M4860 1040 l0 -50 350 0 350 0 0 50 0 50 -350 0 -350 0 0 -50z"/>
<path d="M5830 1040 l0 -50 565 0 565 0 0 50 0 50 -565 0 -565 0 0 -50z"/>
<path d="M7350 1085 c0 -3 24 -21 54 -40 118 -75 291 -109 434 -85 81 13 194
65 232 105 l23 25 -371 0 c-205 0 -372 -2 -372 -5z"/>
<path d="M8370 1040 l0 -50 325 0 325 0 0 50 0 50 -325 0 -325 0 0 -50z"/>
<path d="M9120 1040 l0 -50 335 0 335 0 0 50 0 50 -335 0 -335 0 0 -50z"/>
<path d="M3653 543 c-18 -7 -16 -32 2 -39 12 -5 15 -33 15 -164 0 -131 -3
-159 -15 -164 -20 -7 -19 -32 1 -40 9 -3 85 -6 170 -6 l154 0 0 60 c0 60 0 60
-30 60 -22 0 -33 -7 -44 -29 -17 -33 -34 -41 -82 -41 l-34 0 0 70 c0 64 2 70
20 70 11 0 23 -7 26 -15 4 -9 19 -15 35 -15 29 0 29 0 29 60 0 59 -1 60 -28
60 -16 0 -32 -8 -40 -20 -7 -11 -19 -20 -27 -20 -12 0 -15 14 -15 65 l0 65 36
0 c27 0 43 -7 64 -30 15 -16 37 -30 49 -30 19 0 21 6 21 55 l0 55 -147 -1
c-82 0 -154 -3 -160 -6z"/>
<path d="M4105 536 c-66 -29 -105 -101 -105 -194 0 -75 15 -118 53 -160 83
-87 256 -62 281 41 6 26 5 27 -29 27 -29 0 -37 -5 -45 -25 -12 -32 -55 -53
-78 -39 -35 21 -52 75 -52 162 0 108 17 152 60 152 24 0 35 -7 51 -35 16 -27
27 -35 50 -35 28 0 29 1 29 54 l0 53 -67 6 c-94 9 -113 8 -148 -7z"/>
<path d="M4353 535 c-3 -9 2 -24 11 -34 13 -14 16 -43 16 -158 0 -160 9 -183
78 -203 81 -22 165 -9 210 32 21 20 22 29 22 169 0 125 2 149 16 157 9 5 14
18 12 28 -6 33 -138 32 -138 -2 0 -8 7 -17 15 -20 12 -5 15 -31 15 -150 l0
-144 -26 -17 c-24 -15 -29 -15 -53 -2 -26 15 -26 15 -29 153 -2 118 0 142 14
157 32 36 12 49 -76 49 -63 0 -82 -3 -87 -15z"/>
<path d="M4885 536 c-32 -9 -41 -17 -43 -38 -6 -47 -101 -303 -118 -315 -9 -6
-14 -20 -12 -30 6 -32 138 -31 138 2 0 8 -7 18 -16 23 -11 6 -14 16 -9 31 5
18 14 21 60 21 46 0 55 -3 60 -21 5 -14 1 -25 -11 -33 -10 -8 -15 -20 -11 -30
9 -24 175 -24 184 0 4 10 -2 23 -14 33 -11 9 -27 36 -35 61 -53 160 -112 310
-122 309 -6 0 -29 -6 -51 -13z"/>
<path d="M5128 545 c-12 -12 -10 -45 2 -45 6 0 10 -60 10 -160 0 -107 -4 -160
-11 -160 -6 0 -9 -10 -7 -22 3 -22 6 -23 117 -21 147 3 194 23 230 97 30 60
33 154 8 202 -22 42 -69 81 -115 94 -48 14 -225 25 -234 15z m219 -103 c10
-25 14 -62 11 -124 -3 -93 -15 -118 -65 -133 l-23 -6 0 160 0 160 31 -11 c21
-7 36 -22 46 -46z"/>
<path d="M5652 543 c-13 -3 -41 -22 -62 -43 -88 -88 -77 -270 21 -343 17 -12
49 -21 92 -24 82 -7 144 19 179 75 20 32 23 50 23 132 0 82 -3 100 -23 132
-39 63 -127 90 -230 71z m114 -78 c17 -41 18 -170 1 -235 -11 -40 -15 -45 -44
-48 -38 -4 -49 12 -58 84 -8 59 8 199 25 219 7 8 23 15 37 15 18 0 28 -9 39
-35z"/>
<path d="M5948 544 c-12 -11 -10 -44 2 -44 6 0 10 -60 10 -160 0 -107 -4 -160
-11 -160 -6 0 -9 -10 -7 -22 3 -21 9 -23 68 -26 35 -2 75 0 87 3 26 6 31 33 8
41 -11 5 -15 23 -15 71 0 84 13 79 58 -23 19 -43 40 -82 46 -86 13 -9 88 -10
110 -2 21 8 20 31 -1 43 -10 5 -29 37 -42 71 -14 34 -33 67 -43 74 -16 12 -15
15 19 37 71 47 66 126 -11 160 -44 19 -265 38 -278 23z"/>
</g>
</svg>
